<svg width="20" height="20" viewBox="0 0 20 20" fill="none" xmlns="http://www.w3.org/2000/svg">
<g clip-path="url(#clip0_30_342)">
<path d="M10 0C12.7611 0 15.2613 1.1195 17.0709 2.92909C18.8805 4.73856 20 7.23878 20 10.0001C20 12.7612 18.8805 15.2614 17.0709 17.0711C15.2613 18.8805 12.7611 20 10 20C7.23887 20 4.73871 18.8805 2.9291 17.0711C1.11949 15.2614 0 12.7612 0 10.0001C0 7.23878 1.11949 4.73856 2.9291 2.92909C4.73855 1.1195 7.23871 0 10 0Z" fill="#ECCA43"/>
<path d="M9.99999 19.8045C15.4148 19.8045 19.8044 15.4149 19.8044 10C19.8044 4.58518 15.4148 0.195587 9.99999 0.195587C4.58519 0.195587 0.195618 4.58518 0.195618 10C0.195618 15.4149 4.58519 19.8045 9.99999 19.8045Z" fill="#F7E259"/>
<path fill-rule="evenodd" clip-rule="evenodd" d="M19.6779 8.42555C19.762 8.94618 19.8043 9.47271 19.8043 10.0001C19.8043 15.4148 15.4148 19.8044 10 19.8044C4.58524 19.8044 0.195587 15.4148 0.195587 10.0001C0.195587 9.14626 0.305001 8.31821 0.510079 7.52855L10.1364 14.6957L19.6779 8.42555Z" fill="#F8D548"/>
<path d="M10 2.30166C12.1256 2.30166 14.0503 3.16343 15.4435 4.55657C16.8366 5.94959 17.6984 7.87437 17.6984 9.99994C17.6984 12.1255 16.8366 14.0503 15.4435 15.4434C14.0503 16.8366 12.1256 17.6984 10 17.6984C7.87446 17.6984 5.94969 16.8366 4.55669 15.4434C3.16356 14.0503 2.3018 12.1255 2.3018 9.99994C2.3018 7.87437 3.16356 5.94959 4.55669 4.55657C5.94969 3.16343 7.87446 2.30166 10 2.30166Z" fill="#D7925B"/>
<path d="M10 17.5027C14.1437 17.5027 17.5027 14.1436 17.5027 9.99998C17.5027 5.85632 14.1437 2.49721 10 2.49721C5.85642 2.49721 2.49734 5.85632 2.49734 9.99998C2.49734 14.1436 5.85642 17.5027 10 17.5027Z" fill="#EDA140"/>
<path d="M9.21512 13.7895C9.10645 13.7819 9.03993 13.7708 8.96001 13.7579L8.51258 13.6938L8.23641 13.6474C8.14696 13.6315 8.05751 13.6135 7.96922 13.5939C7.88272 13.5749 7.79666 13.5539 7.7111 13.5311L7.60594 13.5028V11.7747L8.09461 11.8145L8.4534 11.8357L8.82993 11.8525L9.21129 11.8643L9.58196 11.8715L9.92633 11.8732C10.031 11.8732 10.1228 11.8695 10.2012 11.8625C10.282 11.8553 10.3545 11.8443 10.4187 11.8297C10.4771 11.8165 10.5281 11.7991 10.5714 11.7782C10.6085 11.7603 10.6394 11.7389 10.6635 11.7149C10.6839 11.6947 10.6995 11.6702 10.7093 11.6432C10.7209 11.6114 10.7267 11.5732 10.7267 11.5296V11.4154C10.7267 11.3243 10.6974 11.2578 10.6391 11.2165C10.6028 11.1907 10.5626 11.1711 10.52 11.1585C10.4764 11.1449 10.4274 11.1384 10.3736 11.1384H9.86934C9.4895 11.1384 9.15258 11.0958 8.85954 11.0108C8.56075 10.9242 8.30864 10.7935 8.10333 10.6193C7.89348 10.4402 7.73665 10.2033 7.63333 9.90854C7.5327 9.62162 7.48219 9.28005 7.48219 8.88446V8.57047C7.48219 8.20418 7.53821 7.88168 7.64973 7.60328C7.76325 7.32023 7.93411 7.08433 8.16168 6.8964C8.32653 6.76065 8.48235 6.64948 8.66743 6.56253C8.82372 6.48913 8.99895 6.43413 9.21512 6.39803V5.63146H10.8088V6.36709C11.0724 6.38815 11.2768 6.42495 11.5347 6.47159L11.6686 6.49499C11.7805 6.51471 11.892 6.53628 12.0023 6.55917C12.1059 6.58042 12.2055 6.60264 12.3001 6.62557L12.4086 6.65198V8.38239L12.2548 8.36887C12.1013 8.35545 11.9476 8.34396 11.7937 8.33442C11.6213 8.32359 11.4488 8.31445 11.2763 8.307C11.1037 8.29942 10.931 8.29352 10.7583 8.2893C10.6102 8.28578 10.4533 8.28391 10.288 8.28391C10.2011 8.28391 10.1205 8.28696 10.0469 8.29278C9.96981 8.29879 9.89961 8.30766 9.83708 8.31903C9.7804 8.32922 9.72989 8.34497 9.68676 8.3652C9.64864 8.38325 9.61571 8.40583 9.58879 8.43274C9.56622 8.45532 9.54848 8.48438 9.5368 8.51868C9.52309 8.55895 9.51606 8.60813 9.51606 8.66563V8.76075C9.51606 8.82196 9.52493 8.8738 9.54251 8.91524C9.55845 8.9533 9.5836 8.98679 9.61571 9.01271C9.65047 9.04099 9.69731 9.06306 9.75532 9.07845C9.8202 9.09548 9.89961 9.10435 9.9929 9.10435H10.6209C10.8516 9.10435 11.0656 9.12693 11.262 9.17138C11.4607 9.21654 11.6399 9.28474 11.799 9.37537C12.1186 9.55744 12.3595 9.80537 12.521 10.1185C12.6006 10.2727 12.6607 10.4384 12.7007 10.6149C12.7405 10.7906 12.7607 10.9752 12.7607 11.168V11.4819C12.7607 11.7918 12.733 12.068 12.6781 12.3096C12.6221 12.556 12.5367 12.766 12.4227 12.939C12.3085 13.1122 12.1694 13.2577 12.0065 13.3747C11.8438 13.4916 11.6576 13.5802 11.4493 13.6399L11.3959 13.6548C11.1927 13.7133 11.0455 13.7558 10.8088 13.7817V14.6113H9.21512V13.7895Z" fill="#C26A34"/>
<path d="M8.97249 13.5469C8.86382 13.5392 8.79726 13.5282 8.71734 13.5153L8.26995 13.4511L7.99374 13.4048C7.90433 13.3888 7.81526 13.371 7.72659 13.3513C7.64009 13.3323 7.55401 13.3113 7.46843 13.2884L7.36327 13.2602V11.5321L7.85199 11.5719L8.21077 11.5931L8.58726 11.6098L8.96863 11.6217L9.33929 11.6289L9.6837 11.6305C9.78835 11.6305 9.88015 11.6269 9.95855 11.6199C10.0393 11.6127 10.1119 11.6016 10.1761 11.5871C10.2344 11.5739 10.2854 11.5565 10.3287 11.5356C10.3659 11.5177 10.3968 11.4963 10.4209 11.4722C10.4412 11.452 10.4569 11.4275 10.4666 11.4005C10.4782 11.3687 10.4841 11.3306 10.4841 11.287V11.1728C10.4841 11.0817 10.4548 11.0151 10.3964 10.9738C10.3602 10.9481 10.32 10.9285 10.2774 10.9158C10.2337 10.9023 10.1848 10.8957 10.1309 10.8957H9.62667C9.24683 10.8957 8.90995 10.8531 8.61687 10.7682C8.31808 10.6816 8.06597 10.5508 7.86066 10.3766C7.65085 10.1976 7.49402 9.96064 7.3907 9.66587C7.29003 9.379 7.23956 9.03743 7.23956 8.64184V8.32785C7.23956 7.96152 7.29554 7.63902 7.40706 7.36066C7.52058 7.07761 7.69148 6.84167 7.91902 6.65378C8.08386 6.51799 8.23968 6.40682 8.42476 6.31987C8.58109 6.24651 8.75628 6.19147 8.97249 6.15537V5.3888H10.5661V6.12443C10.8298 6.14549 11.0341 6.18229 11.2921 6.22893L11.426 6.25233C11.5378 6.27205 11.6494 6.29362 11.7597 6.31655C11.8632 6.3378 11.9628 6.36002 12.0575 6.38291L12.166 6.40932V8.13977L12.0122 8.12621C11.8586 8.11281 11.7049 8.10133 11.551 8.09176C11.3827 8.08125 11.21 8.07187 11.0336 8.06437C10.8494 8.05648 10.676 8.05031 10.5156 8.04664C10.3675 8.04312 10.2107 8.04129 10.0453 8.04129C9.95839 8.04129 9.87781 8.0443 9.80425 8.05016C9.73391 8.05536 9.66387 8.06412 9.59441 8.07641C9.53773 8.0866 9.48726 8.1023 9.44413 8.12254C9.40601 8.14059 9.37308 8.16317 9.34616 8.19008C9.32359 8.21266 9.30585 8.24176 9.29413 8.27602C9.28042 8.31633 9.27343 8.36547 9.27343 8.42297V8.51813C9.27343 8.5793 9.2823 8.63114 9.29984 8.67258C9.31579 8.71065 9.34096 8.74416 9.37308 8.77008C9.40784 8.79833 9.45464 8.8204 9.51269 8.83579C9.57753 8.85282 9.65695 8.86169 9.75027 8.86169H10.3782C10.6089 8.86169 10.8229 8.88427 11.0194 8.92876C11.218 8.97388 11.3972 9.04208 11.5564 9.13271C11.8759 9.31478 12.1168 9.56275 12.2783 9.87588C12.3579 10.03 12.4181 10.1957 12.458 10.3722C12.4978 10.548 12.5181 10.7326 12.5181 10.9253V11.2393C12.5181 11.5491 12.4903 11.8253 12.4355 12.0669C12.3795 12.3134 12.2941 12.5234 12.18 12.6964C12.0658 12.8696 11.9267 13.015 11.7639 13.1321C11.6012 13.249 11.415 13.3376 11.2066 13.3973L11.1533 13.4122C10.95 13.4707 10.8029 13.5131 10.5661 13.539V14.3687H8.97249V13.5469Z" fill="#F3DC6B"/>
</g>
<defs>
<clipPath id="clip0_30_342">
<rect width="20" height="20" fill="white"/>
</clipPath>
</defs>
</svg>
