<svg width="28" height="24" viewBox="0 0 28 24" fill="none" xmlns="http://www.w3.org/2000/svg">
<path d="M5.40625 0H21.9531L22 2H5.49374L5.40625 0Z" fill="#BFA595"/>
<path d="M2 10H25L25.3594 12H2V10Z" fill="#BFA595"/>
<path d="M0 11.137L5.40098 -1.22349e-06L7.20053 0.872708L2 12L0 11.137Z" fill="#BFA595"/>
<path d="M27.359 11.137L21.958 -1.22349e-06L20.1585 0.872708L25.359 12L27.359 11.137Z" fill="#BFA595"/>
<rect x="3" y="12" width="2" height="12" fill="#BFA595"/>
<rect x="22" y="12" width="2" height="12" fill="#BFA595"/>
<rect x="5" y="22" width="6" height="2" fill="#BFA595"/>
<rect x="11" y="15" width="5" height="2" fill="#BFA595"/>
<rect x="16" y="22" width="6" height="2" fill="#BFA595"/>
<rect x="16" y="15" width="2" height="7" fill="#BFA595"/>
<rect x="9" y="15" width="2" height="7" fill="#BFA595"/>
</svg>
