<svg width="25" height="25" viewBox="0 0 25 25" fill="none" xmlns="http://www.w3.org/2000/svg">
<path d="M8.5 0L12.9167 8.28H4.08327L8.5 0Z" fill="#927E71"/>
<path d="M8.5 3.67999L14.389 14.03H2.61102L8.5 3.67999Z" fill="#927E71"/>
<path d="M8.5 8.28L15.8612 19.32H1.13878L8.5 8.28Z" fill="#927E71"/>
<rect x="6.8" y="16.56" width="3.4" height="5.52" fill="#927E71"/>
<path d="M16.5 0L20.9167 8.28H12.0833L16.5 0Z" fill="#927E71"/>
<path d="M16.8 4L22.689 14.35H10.911L16.8 4Z" fill="#927E71"/>
<path d="M16.5 8.28L23.8612 19.32H9.13878L16.5 8.28Z" fill="#927E71"/>
<rect x="14.8" y="16.56" width="3.4" height="5.52" fill="#927E71"/>
<path d="M12.5 2L16.9167 10.28H8.08327L12.5 2Z" fill="#BFA595"/>
<path d="M12.5 5.67999L18.389 16.03H6.61102L12.5 5.67999Z" fill="#BFA595"/>
<path d="M12.5 10.28L19.8612 21.32H5.13878L12.5 10.28Z" fill="#BFA595"/>
<rect x="10.8" y="18.56" width="3.4" height="5.52" fill="#BFA595"/>
</svg>
