<svg width="20" height="20" viewBox="0 0 20 20" fill="none" xmlns="http://www.w3.org/2000/svg">
<path d="M5.82656 17.6969L4.51094 18.3969V15.2469L6.15469 16.9969L5.82656 17.6969Z" fill="#633D35"/>
<path d="M15.6234 3.11719C15.6234 3.58906 15.7031 6.475 15.7031 6.475C15.7031 6.475 15.7438 6.78437 15.9766 6.8625C16.1297 6.91406 16.4641 6.80469 16.8719 6.48594C16.9266 6.44375 17 6.4375 17.0594 6.47187C17.2156 6.56562 17.5516 6.74844 17.7625 7.30313C17.9953 7.91563 17.9516 8.43125 17.9156 8.65C17.9031 8.72344 17.8688 8.79062 17.8266 8.84375C17.4469 9.3125 15.5469 11.7469 15.5469 13.2938C15.5469 13.2938 15.5781 15.5516 15.5781 16.8797C15.5781 18.0906 13.5328 19.1016 10.8141 19.3359L9.29688 18.9188L7.54688 19.2328C6.99063 19.1469 6.47188 19.0281 6.00625 18.8813L4.83906 15.5969L4.51094 18.3969C4.51094 18.3969 3.63438 17.4984 3.63438 16.8797C3.63438 15.5406 3.30625 3.125 3.30625 3.125L15.6234 3.11719Z" fill="#AD7156"/>
<path d="M7.34375 5.55938C7.29219 6.42813 7.20156 7.28906 7.10469 8.14844L6.95938 9.43438C6.91406 9.8625 6.85469 10.2859 6.86719 10.6969C6.86719 11.1188 6.8875 11.55 6.90938 11.9797L6.96719 13.2734C7.00469 14.1375 7.0375 15.0016 7.03125 15.8719C6.84375 15.0219 6.71094 14.1641 6.60313 13.3031C6.49688 12.4406 6.41406 11.5813 6.39844 10.6984C6.39531 10.2438 6.46094 9.80625 6.52031 9.37656C6.58906 8.94688 6.65781 8.51875 6.74375 8.09375C6.91094 7.24219 7.10156 6.39688 7.34375 5.55938Z" fill="#CE8963"/>
<path d="M5.3125 9.93437C5.35469 10.0437 5.35938 10.1625 5.37188 10.2766C5.37969 10.3922 5.3875 10.5078 5.39062 10.6234C5.39687 10.8547 5.4 11.0859 5.39688 11.3172C5.39375 11.7797 5.37656 12.2406 5.35156 12.7016C5.32812 13.1625 5.29687 13.6219 5.25937 14.0812C5.22656 14.5406 5.17812 15 5.13281 15.4594L5.12812 15.4031L5.35 16.2172L5.56094 17.0344C5.69687 17.5812 5.82656 18.1281 5.9375 18.6828C5.73125 18.1578 5.54375 17.625 5.3625 17.0922L5.09687 16.2906L4.84375 15.4891L4.83594 15.4641L4.83906 15.4344C4.87812 14.9766 4.91094 14.5172 4.95469 14.0578C4.99375 13.6 5.0375 13.1406 5.08281 12.6828L5.22187 11.3094L5.28906 10.6219C5.3 10.5078 5.30937 10.3922 5.31719 10.2781C5.32031 10.1641 5.33594 10.0484 5.3125 9.93437Z" fill="#CE8963"/>
<path d="M9.14062 15.0125V18.9187L10.3906 19.2312C10.3906 19.2312 9.60938 16.8875 9.14062 15.0125Z" fill="#CE8963"/>
<path d="M13.8281 12.3563C14.7156 10.3328 17.8406 8.14844 17.8406 8.14844L17.9328 8.08125C17.95 8.35625 17.9359 8.55625 17.9109 8.66563C17.9 8.71407 17.8641 8.79375 17.8391 8.82344C17.5391 9.19219 15.5469 11.7016 15.5469 13.2922C15.5469 13.2922 15.5781 15.55 15.5781 16.8781C15.5781 17.4734 14.9219 18.2922 13.5156 18.7609L14.1406 14.2297L12.7344 15.6359C12.7344 15.6375 13.2047 13.7797 13.8281 12.3563Z" fill="#965B44"/>
<path d="M15.7031 6.37344C15.7437 7.00625 16.1844 6.8625 16.1844 6.8625C15.6781 7.1 14.9437 7.23281 14.5187 6.95C14.05 6.6375 13.8281 5.01406 13.8281 5.01406L14.1406 4.07656L15.6156 3.2125L15.7031 6.37344Z" fill="#965B44"/>
<path d="M9.1375 0.667187C6.00469 0.739062 3.51562 1.83281 3.51562 3.17187C3.51562 4.55781 6.17969 5.67969 9.46563 5.67969C12.7516 5.67969 15.4156 4.55625 15.4156 3.17187C15.4156 1.83906 12.95 0.748437 9.83594 0.668749" fill="#FFCC80"/>
<path d="M9.1375 0.667187C8.01719 0.75625 6.9 0.932813 5.85781 1.31719C5.33906 1.50625 4.83281 1.74062 4.40938 2.06719C4.20156 2.23125 4.00938 2.41562 3.88281 2.62812C3.75156 2.8375 3.69844 3.07187 3.73594 3.29688C3.77344 3.52031 3.9 3.73281 4.07344 3.91406C4.24688 4.09531 4.45625 4.25625 4.68438 4.39062C5.14219 4.66094 5.65625 4.85312 6.18125 4.99844C7.23594 5.28906 8.34219 5.41094 9.44531 5.40937C10.5469 5.4125 11.6547 5.29531 12.7109 5.00781C13.2359 4.86406 13.7531 4.675 14.2125 4.40937C14.4422 4.27656 14.6562 4.12187 14.8312 3.94062C15.0078 3.7625 15.1437 3.55312 15.1875 3.32969C15.2391 3.10625 15.1859 2.87188 15.0672 2.65938C14.9453 2.44688 14.7594 2.25781 14.5531 2.09219C14.1359 1.75937 13.6297 1.52344 13.1125 1.33125C12.0734 0.942188 10.9563 0.7625 9.83594 0.66875C10.1172 0.664062 10.3984 0.665625 10.6813 0.675C10.9625 0.689062 11.2453 0.7125 11.525 0.745312C12.0859 0.814062 12.6469 0.915625 13.1953 1.07812C13.7406 1.24687 14.2812 1.46406 14.7656 1.80625C15.0078 1.97813 15.2328 2.1875 15.4016 2.45625C15.5688 2.72344 15.6641 3.07031 15.6031 3.40312C15.55 3.7375 15.3688 4.02344 15.1625 4.25C14.9531 4.47969 14.7094 4.65937 14.4562 4.81562C13.95 5.125 13.4031 5.33594 12.85 5.50156C11.7375 5.82031 10.5891 5.94531 9.44375 5.95C8.3 5.94063 7.15 5.81406 6.03906 5.48906C5.48594 5.32188 4.94063 5.10625 4.43594 4.79375C4.18438 4.63594 3.94375 4.45 3.73594 4.21719C3.53281 3.98594 3.36094 3.69062 3.31719 3.35625C3.29688 3.19062 3.30781 3.02031 3.35 2.85937C3.39063 2.69844 3.46563 2.55312 3.55156 2.42031C3.725 2.15469 3.95625 1.95312 4.19844 1.78281C4.6875 1.44844 5.22656 1.23281 5.77344 1.06719C6.32188 0.907812 6.88281 0.807812 7.44531 0.740625C7.72656 0.709375 8.00781 0.685937 8.29063 0.673437C8.57344 0.660937 8.85625 0.660937 9.1375 0.667187Z" fill="#CE8963"/>
<path d="M3.42344 2.75781C3.42344 3.85625 5.6625 4.74687 8.42656 4.74687C11.1906 4.74687 13.4297 3.85625 13.4297 2.75781C13.4297 1.65937 12.4531 0.392186 8.42656 0.767186C5.675 1.025 3.42344 1.65781 3.42344 2.75781Z" fill="url(#paint0_radial_30_322)"/>
<path opacity="0.66" d="M4.85625 2.90937C4.85469 3.12656 4.98281 3.32187 5.13594 3.47344C5.29375 3.62344 5.48125 3.74062 5.67656 3.83906C6.06875 4.03281 6.49219 4.15781 6.91875 4.25469C7.775 4.43437 8.65313 4.49844 9.525 4.4875C10.3969 4.47656 11.2719 4.38906 12.1141 4.18281C12.5328 4.07656 12.9469 3.94062 13.325 3.74531C13.5125 3.64844 13.6891 3.52969 13.8344 3.39219C13.975 3.25156 14.0797 3.08281 14.075 2.91094C14.0734 2.74062 13.9672 2.57656 13.8234 2.44062C13.6766 2.30625 13.5 2.19375 13.3109 2.10156C12.9328 1.91562 12.5188 1.79062 12.1 1.69375C11.6797 1.59687 11.2516 1.53281 10.8219 1.48906C10.3922 1.44219 9.95781 1.42031 9.525 1.41719C8.65781 1.41094 7.78594 1.45469 6.93125 1.61875C6.50625 1.70625 6.08281 1.81875 5.68906 2.00312C5.49375 2.09687 5.30625 2.20937 5.14531 2.35469C4.99063 2.5 4.85938 2.69062 4.85625 2.90937ZM4.82188 2.90937C4.81875 2.67812 4.95156 2.47344 5.10781 2.31719C5.26875 2.16094 5.45313 2.03281 5.65 1.92812C6.04063 1.71406 6.46094 1.5625 6.88906 1.44219C7.74531 1.20469 8.63594 1.0875 9.525 1.07812C9.97031 1.07656 10.4156 1.09531 10.8594 1.13906C11.3031 1.18594 11.7438 1.26094 12.1797 1.36719C12.6141 1.47812 13.0438 1.61875 13.4516 1.83125C13.6547 1.9375 13.85 2.06562 14.025 2.23281C14.1094 2.31875 14.1891 2.41562 14.25 2.52812C14.3109 2.64062 14.35 2.77344 14.3484 2.90937C14.3469 3.04531 14.3063 3.17656 14.2438 3.2875C14.1813 3.39844 14.1016 3.49375 14.0156 3.57656C13.8406 3.73906 13.6438 3.8625 13.4391 3.9625C13.0313 4.16406 12.6016 4.29531 12.1672 4.39531C11.2984 4.59062 10.4109 4.6625 9.52657 4.65625C8.64375 4.64062 7.75781 4.54531 6.90313 4.32344C6.47656 4.2125 6.05469 4.07187 5.6625 3.86875C5.46563 3.76875 5.27969 3.64531 5.11719 3.49375C4.95938 3.34062 4.82344 3.14062 4.82188 2.90937Z" fill="#7F441C"/>
<path opacity="0.82" d="M5.90781 2.73438C5.90781 3.31406 7.41719 3.78438 9.27813 3.78438C11.1391 3.78438 12.6484 3.31406 12.6484 2.73438C12.6484 2.15469 11.1391 1.68438 9.27813 1.68438C7.41719 1.68438 5.90781 2.15469 5.90781 2.73438ZM6.48281 2.73438C6.48281 2.3 7.67344 1.94688 9.14375 1.94688C10.6141 1.94688 11.8047 2.3 11.8047 2.73438C11.8047 3.16875 10.6141 3.52188 9.14375 3.52188C7.67344 3.52188 6.48281 3.16875 6.48281 2.73438Z" fill="#B5772C"/>
<path opacity="0.74" d="M9.59531 2.99688C10.328 2.99688 10.9219 2.84017 10.9219 2.64688C10.9219 2.45358 10.328 2.29688 9.59531 2.29688C8.86267 2.29688 8.26875 2.45358 8.26875 2.64688C8.26875 2.84017 8.86267 2.99688 9.59531 2.99688Z" fill="url(#paint1_linear_30_322)"/>
<defs>
<radialGradient id="paint0_radial_30_322" cx="0" cy="0" r="1" gradientUnits="userSpaceOnUse" gradientTransform="translate(9.39215 2.2531) rotate(180) scale(3.99079 3.1864)">
<stop offset="0.056" stop-color="#FFA726"/>
<stop offset="0.135" stop-color="#FFA726"/>
<stop offset="1" stop-color="#FFA726" stop-opacity="0.1"/>
</radialGradient>
<linearGradient id="paint1_linear_30_322" x1="10.9219" y1="2.64672" x2="8.26734" y2="2.64672" gradientUnits="userSpaceOnUse">
<stop stop-color="#8A5140"/>
<stop offset="1" stop-color="#8A5140"/>
</linearGradient>
</defs>
</svg>
